<?xml version="1.0" encoding="UTF-8" standalone="no"?>
<!-- Created with Inkscape (http://www.inkscape.org/) -->
<svg xmlns:svg="http://www.w3.org/2000/svg" xmlns="http://www.w3.org/2000/svg" version="1.0" width="709.06" height="385.31" id="svg3145">
  <defs id="defs3147"/>
  <g id="layer1">
    <g transform="matrix(9.9999642,0,0,9.9999642,4.062516,4.0619239)" id="g3141">
      <path d="M 4.25,0.09375 C 1.98,0.09375 0.093750001,1.9497502 0.09375,4.21875 L 0.09375,33.5 C 0.09375,35.765 1.9800001,37.624998 4.25,37.625 L 65.875,37.625 C 68.143,37.625 70,35.765002 70,33.5 L 70,4.21875 C 70,1.94975 68.142998,0.093750003 65.875,0.09375 L 4.25,0.09375 z " transform="translate(-1.2493563e-6,0)" style="fill:#e1001a;fill-opacity:1" id="path3"/>
      <path d="M 26.509,18.739 C 25.879,18.739 25.453,19.185 25.453,19.848 C 25.453,19.848 25.453,22.882 25.453,23.85 C 24.915,23.356 24.117,22.944 23.129,22.944 C 20.275,22.944 18.784,25.539 18.784,28.102 C 18.784,30.664 20.275,33.258 23.129,33.258 C 24.164,33.258 24.954,32.962 25.494,32.39 C 25.588,32.912 25.962,33.258 26.509,33.258 C 27.142,33.258 27.567,32.812 27.567,32.147 L 27.567,19.848 C 27.567,19.185 27.142,18.739 26.509,18.739 M 23.257,31.36 C 21.514,31.36 20.896,29.606 20.896,28.102 C 20.896,26.597 21.514,24.841 23.257,24.841 C 24.999,24.841 25.616,26.597 25.616,28.102 C 25.616,29.606 24.999,31.36 23.257,31.36 z M 51.945,24.841 C 52.502,24.841 52.797,24.98 53.08,25.119 C 53.309,25.23 53.547,25.344 53.87,25.344 C 54.415,25.344 54.78,24.863 54.78,24.414 C 54.78,23.536 53.64,22.944 51.945,22.944 C 48.782,22.944 47.365,25.535 47.365,28.102 C 47.365,30.669 48.782,33.258 51.945,33.258 C 53.769,33.258 54.726,32.501 54.726,31.752 C 54.726,31.196 54.373,30.823 53.849,30.823 C 53.581,30.823 53.378,30.93 53.16,31.044 C 52.871,31.192 52.549,31.36 51.945,31.36 C 49.997,31.36 49.478,29.311 49.478,28.102 C 49.478,26.89 49.997,24.841 51.945,24.841 z M 14.168,20.775 C 14.007,20.354 13.712,19.589 12.798,19.589 C 11.892,19.589 11.605,20.316 11.434,20.752 C 11.428,20.764 9.921,24.805 8.738,27.974 L 6.472,27.974 C 5.68,27.974 5.399,28.473 5.399,28.902 C 5.399,29.348 5.681,29.826 6.472,29.826 L 8.051,29.826 C 7.633,30.94 7.35,31.697 7.35,31.697 C 7.281,31.868 7.202,32.146 7.202,32.373 C 7.202,32.819 7.535,33.271 8.171,33.271 C 8.839,33.271 9.056,32.833 9.215,32.515 L 9.25,32.444 L 10.095,30.147 C 10.095,30.147 10.144,30.005 10.209,29.826 L 12.82,29.826 C 13.613,29.826 13.896,29.348 13.896,28.902 C 13.896,28.473 13.614,27.974 12.82,27.974 L 10.888,27.974 C 11.392,26.599 12.298,24.136 12.799,22.774 C 13.334,24.23 15.072,28.964 15.074,28.966 C 15.074,28.969 15.499,30.142 15.499,30.142 C 15.499,30.147 16.336,32.424 16.336,32.424 C 16.445,32.702 16.663,33.271 17.423,33.271 C 18.061,33.271 18.395,32.819 18.395,32.373 C 18.395,32.146 18.314,31.87 18.238,31.686 C 18.243,31.697 14.168,20.775 14.168,20.775 z M 43.558,24.841 C 44.115,24.841 44.409,24.98 44.691,25.119 C 44.922,25.23 45.159,25.344 45.483,25.344 C 46.027,25.344 46.392,24.863 46.392,24.414 C 46.392,23.536 45.254,22.944 43.558,22.944 C 40.395,22.944 38.98,25.535 38.98,28.102 C 38.98,30.669 40.395,33.258 43.558,33.258 C 45.386,33.258 46.342,32.501 46.342,31.752 C 46.342,31.196 45.99,30.823 45.464,30.823 C 45.198,30.823 44.992,30.93 44.776,31.044 C 44.488,31.192 44.162,31.36 43.559,31.36 C 41.613,31.36 41.094,29.311 41.094,28.102 C 41.093,26.89 41.612,24.841 43.558,24.841 z M 60.224,22.944 C 57.286,22.944 55.749,25.539 55.749,28.102 C 55.749,30.664 57.286,33.258 60.224,33.258 C 63.159,33.258 64.694,30.664 64.694,28.102 C 64.694,25.539 63.159,22.944 60.224,22.944 z M 60.224,31.36 C 58.481,31.36 57.864,29.606 57.864,28.102 C 57.864,26.597 58.481,24.841 60.224,24.841 C 61.966,24.841 62.585,26.597 62.585,28.102 C 62.585,29.606 61.966,31.36 60.224,31.36 z M 37.877,27.868 C 37.877,25.448 36.237,22.944 33.491,22.944 C 30.499,22.944 28.931,25.539 28.931,28.102 C 28.931,30.482 30.149,33.258 33.582,33.258 C 35.457,33.258 37.678,32.052 37.678,31.034 C 37.678,30.406 37.243,30.067 36.837,30.067 C 36.541,30.067 36.295,30.259 36.009,30.482 C 35.534,30.853 34.883,31.36 33.601,31.36 C 32.158,31.36 31.175,30.411 31.063,28.976 C 31.584,28.976 36.729,28.976 36.729,28.976 C 37.513,28.976 37.877,28.624 37.877,27.868 z M 31.061,27.263 C 31.147,26.431 31.557,24.769 33.485,24.841 C 35.027,24.841 35.654,26.204 35.744,27.263 L 31.061,27.263 z " style="fill:#ffffff" id="path7"/>
    </g>
  </g>
</svg>