<?xml version="1.0" encoding="UTF-8"?>
<!DOCTYPE svg PUBLIC "-//W3C//DTD SVG 1.1//EN" "http://www.w3.org/Graphics/SVG/1.1/DTD/svg11.dtd">
<svg width="320pt" height="120pt" viewBox="0 0 320 120" version="1.1" xmlns="http://www.w3.org/2000/svg">
<g id="#3573ffff">
<path fill="#3573ff" opacity="1.00" d=" M 0.00 0.00 L 41.74 0.00 C 42.00 40.00 41.60 80.00 41.94 120.00 L 0.00 120.00 L 0.00 0.00 Z"/>
<path fill="#3573ff" opacity="1.00" d=" M 278.00 0.00 L 320.00 0.00 L 320.00 120.00 L 277.99 120.00 C 278.01 80.00 277.99 40.00 278.00 0.00 Z"/>
</g>
<g id="#ffffffff">
<path fill="#ffffff" opacity="1.00" d=" M 41.74 0.00 L 81.00 0.00 C 81.01 13.67 80.99 27.33 81.01 41.00 C 133.00 41.00 185.00 41.00 236.99 41.00 C 237.01 27.33 236.99 13.67 237.01 0.00 L 278.00 0.00 C 277.99 40.00 278.01 80.00 277.99 120.00 L 237.00 120.00 C 237.00 106.33 237.00 92.67 237.00 79.00 C 185.00 79.00 133.00 79.00 81.00 79.00 C 81.00 92.67 81.00 106.33 81.00 120.00 L 41.94 120.00 C 41.60 80.00 42.00 40.00 41.74 0.00 Z"/>
</g>
<g id="#f71039ff">
<path fill="#f71039" opacity="1.00" d=" M 81.00 0.00 L 237.01 0.00 C 236.99 13.67 237.01 27.33 236.99 41.00 C 185.00 41.00 133.00 41.00 81.01 41.00 C 80.99 27.33 81.01 13.67 81.00 0.00 Z"/>
</g>
<g id="#9c0863ff">
<path fill="#9c0863" opacity="1.00" d=" M 81.00 79.00 C 133.00 79.00 185.00 79.00 237.00 79.00 C 237.00 92.67 237.00 106.33 237.00 120.00 L 81.00 120.00 C 81.00 106.33 81.00 92.67 81.00 79.00 Z"/>
</g>
</svg>