<?xml version="1.0" encoding="UTF-8" standalone="no"?>
<!-- Created with Inkscape (http://www.inkscape.org/) -->
<svg xmlns:dc="http://purl.org/dc/elements/1.1/" xmlns:cc="http://creativecommons.org/ns#" xmlns:rdf="http://www.w3.org/1999/02/22-rdf-syntax-ns#" xmlns:svg="http://www.w3.org/2000/svg" xmlns="http://www.w3.org/2000/svg" xmlns:sodipodi="http://sodipodi.sourceforge.net/DTD/sodipodi-0.dtd" xmlns:inkscape="http://www.inkscape.org/namespaces/inkscape" id="svg2985" version="1.1" inkscape:version="0.48.2 r9819" width="165" height="165" sodipodi:docname="hfh.svg">
  <metadata id="metadata2991">
    <rdf:RDF>
      <cc:Work rdf:about="">
        <dc:format>image/svg+xml</dc:format>
        <dc:type rdf:resource="http://purl.org/dc/dcmitype/StillImage"/>
      </cc:Work>
    </rdf:RDF>
  </metadata>
  <defs id="defs2989"/>
  <sodipodi:namedview pagecolor="#ffffff" bordercolor="#666666" borderopacity="1" objecttolerance="10" gridtolerance="10" guidetolerance="10" inkscape:pageopacity="0" inkscape:pageshadow="2" inkscape:window-width="800" inkscape:window-height="551" id="namedview2987" showgrid="false" inkscape:zoom="1.8893893" inkscape:cx="70.904719" inkscape:cy="82.5" inkscape:window-x="-4" inkscape:window-y="-4" inkscape:window-maximized="1" inkscape:current-layer="svg2985" showguides="true" inkscape:guide-bbox="true" fit-margin-top="0" fit-margin-left="0" fit-margin-right="0" fit-margin-bottom="0"/>
  <g transform="matrix(0.4460514,0,0,0.44605136,-8.8768172,-297.0601)" id="g3000">
    <path transform="matrix(1.2143697,0,0,1.2042888,543.09477,710.28281)" d="m -131.87103,115.78336 c 0,82.42555 -66.05981,149.24466 -147.54871,149.24466 -81.4889,0 -147.5487,-66.81911 -147.5487,-149.24466 0,-82.425546 66.0598,-149.244656 147.5487,-149.244656 81.4889,0 147.54871,66.81911 147.54871,149.244656 z" sodipodi:ry="149.24466" sodipodi:rx="147.54871" sodipodi:cy="115.78336" sodipodi:cx="-279.41974" id="path3022" style="fill:#ffffff;fill-opacity:1;stroke:none" sodipodi:type="arc"/>
    <path id="path2189" d="m 204.85626,1022.0387 c -94.49862,0 -171.104168,-76.60558 -171.104168,-171.10421 0,-94.4995 76.605548,-171.10357 171.104168,-171.10357 94.4995,0 171.10356,76.60407 171.10356,171.10357 0,94.49863 -76.60406,171.10421 -171.10356,171.10421 m 0,-356.06136 c -102.14835,0 -184.955376,82.80999 -184.955376,184.95715 0,102.14834 82.807026,184.95541 184.955376,184.95541 102.15012,0 184.95715,-82.80707 184.95715,-184.95541 0,-102.14716 -82.80703,-184.95715 -184.95715,-184.95715" style="fill:#85bdde;fill-opacity:1;fill-rule:nonzero;stroke:none" inkscape:connector-curvature="0"/>
    <path id="path2191" d="m 204.85626,991.07695 c -77.39909,0 -140.142456,-62.74486 -140.142456,-140.14246 0,-77.39968 62.743366,-140.14216 140.142456,-140.14216 77.39997,0 140.14215,62.74248 140.14215,140.14216 0,77.3976 -62.74218,140.14246 -140.14215,140.14246 m 0,-294.95102 c -85.49765,0 -154.808562,69.30943 -154.808562,154.80856 0,85.49795 69.310912,154.80851 154.808562,154.80851 85.49913,0 154.80855,-69.31056 154.80855,-154.80851 0,-85.49913 -69.30942,-154.80856 -154.80855,-154.80856" style="fill:#85bdde;fill-opacity:1;fill-rule:nonzero;stroke:none" inkscape:connector-curvature="0"/>
  </g>
  <path style="fill:none;stroke:#000000;stroke-width:1px;stroke-linecap:butt;stroke-linejoin:miter;stroke-opacity:1" d="m 60.243375,38.646542 -0.38755,88.916838 c -15.66602,7.02689 -34.48919,-25.37605 -32.93525,-44.722498 -1.48495,-16.36843 20.84825,-59.48325 33.3228,-44.19434 z" id="path2995" inkscape:connector-curvature="0" sodipodi:nodetypes="cccc"/>
  <path style="fill:none;stroke:#000000;stroke-width:1px;stroke-linecap:butt;stroke-linejoin:miter;stroke-opacity:1" d="m 53.918935,42.540392 1e-5,79.919998 c -29.13528,-21.34448 -26.07191,-59.760228 -1e-5,-79.919998 z" id="path2997" inkscape:connector-curvature="0" sodipodi:nodetypes="ccc"/>
  <path style="fill:#000000;stroke:#000000;stroke-width:1px;stroke-linecap:butt;stroke-linejoin:miter;stroke-opacity:1" d="m 68.586525,96.874752 -0.18713,35.585378 c 0.98102,10.93943 26.73834,7.50694 28.0484,2.27761 l -0.7164,-54.354438 -20.51868,-21.4809 -0.0768,-26.34066 14.1534,-0.0582 0.0908,14.00643 6.13203,0.028 -1e-5,-15.96485 c -5.45292,-6.14304 -20.07502,-6.29806 -27.02495,-0.0908 l -0.0878,31.1573 21.01283,21.39009 -0.0548,49.773228 -14.22155,-0.0804 0,-35.847738 z" id="path2999" inkscape:connector-curvature="0" sodipodi:nodetypes="ccccccccccccccccc"/>
  <path style="fill:#000000;stroke:#000000;stroke-width:1px;stroke-linecap:butt;stroke-linejoin:miter;stroke-opacity:1" d="m 103.9351,132.8029 0,-102.171118 6.35125,3.17563 20.37696,60.86623 c 2.90031,-8.20666 0.2179,-22.45563 -0.86802,-26.47569 -0.48331,-1.78919 3.40146,-2.55007 1.92657,-13.74896 11.22125,25.17961 9.70947,48.235618 -5.82199,65.761998 1.58782,-5.99841 2.64636,-10.01205 2.38172,-14.68728 l -17.99524,-50.016168 0,76.479728 z" id="path3001" inkscape:connector-curvature="0" sodipodi:nodetypes="ccccscccccc"/>
  <path style="fill:#000000;fill-opacity:1;fill-rule:nonzero;stroke:#000000;stroke-width:1.12899995;stroke-miterlimit:4;stroke-opacity:1;stroke-dasharray:none" d="m 51.586305,127.22413 c -9.7452,-3.42008 -20.19075,-18.87961 -23.29514,-34.477058 -0.72492,-3.64225 -1.00448,-11.28978 -0.54176,-14.82047 1.68581,-12.86339 10.3133,-30.28067 18.86565,-38.08624 4.59651,-4.19514 8.57887,-4.80893 12.08108,-1.86202 l 0.82925,0.69777 -1.4e-4,14.99455 c -7e-5,8.24701 -0.0793,28.13016 -0.17611,44.18478 l -0.17598,29.190218 -0.55164,0.30203 c -0.30339,0.16612 -1.62341,0.3421 -2.93335,0.39108 -1.95637,0.0731 -2.68892,-0.0188 -4.10186,-0.51464 z m 2.84645,-65.464298 -0.0678,-20.4925 -3.04331,2.60198 c -5.93399,5.07347 -10.50308,11.00557 -13.74101,17.84012 -4.91105,10.36612 -6.20364,21.19328 -3.81547,31.95962 1.45179,6.545008 4.47769,13.029328 8.64641,18.528748 1.81675,2.39668 6.48388,7.08205 9.30702,9.34339 l 2.64636,2.11974 0.0678,-20.7043 c 0.0373,-11.387368 0.0373,-29.925928 0,-41.196798 z" id="path3039" inkscape:connector-curvature="0"/>
</svg>